<?xml version="1.0" encoding="UTF-8" standalone="no"?>
<svg width="750px" height="241px" viewBox="0 0 750 241" version="1.1" xmlns="http://www.w3.org/2000/svg" xmlns:xlink="http://www.w3.org/1999/xlink">
    <defs>
        <linearGradient x1="1.73320408%" y1="100%" x2="100%" y2="100%" id="linearGradient-1">
            <stop stop-color="#3CB2E2" offset="0%"></stop>
            <stop stop-color="#03A588" offset="100%"></stop>
        </linearGradient>
    </defs>
    <g id="Snapcodes" stroke="none" stroke-width="1" fill="none" fill-rule="evenodd" opacity="0.200000018">
        <g id="Analytics" transform="translate(0.000000, -1093.000000)" fill="url(#linearGradient-1)">
            <g id="Graph" transform="translate(-19.000000, 1088.000000)">
                <path d="M61.8387694,169.22433 C77.0840725,137.667411 86.6463098,70.7598298 125.701424,110.718272 C164.756538,150.676714 155.705138,184.144715 186.860232,167.410714 C218.015326,150.676714 232.837592,23.301978 260.620361,71.5282207 C288.40313,119.754463 276.17496,125.785237 311.658203,118.251754 C347.141447,110.71827 346.6785,162.480072 381.960203,162.48007 C417.241905,162.480069 419.041808,93.7340561 449.175227,73.565051 C479.308646,53.396046 475.872691,-0.829081633 496.415712,17.183514 C516.958734,35.1961097 527.850376,80.8155293 582.009378,80.8155293 C636.16838,80.8155293 624.700111,147.136479 659.174861,124.571907 C677.352689,112.674071 674.20266,33.7452167 705.626251,41.3185586 C737.049841,48.8919004 773.395522,0.147480754 773.395522,0.147480754 L773.395522,249.788923 L4.88019976,249.788923 L0.0976744694,211.607143 C16.3989804,195.02551 46.5934664,200.78125 61.8387694,169.22433 Z" id="Path-105"></path>
            </g>
        </g>
    </g>
</svg>
